# xmcd
#
# Track frame offsets:
#	150
#	13161
#	29341
#	47032
#	64749
#	80094
#	95164
#	111125
#	129231
#	146801
#	164491
#	179789
#	195035
#
# Disc length: 2877 seconds
#
# Revision: 1
# Processed by: cddbd v1.5.1PL0 Copyright (c) Steve Scherf et al.
# Submitted via: audiograbber 1.83.01
#
DISCID=b80b3b0d
DTITLE=Annie SIMS - Half the Moon
DYEAR=2004
DGENRE=Country
TTITLE0=You don't have to tell me twice
TTITLE1=Eighty acres of stars
TTITLE2=Early this morning
TTITLE3=Doesn't anybody love like that
TTITLE4=Concrete ribbon
TTITLE5=Half the moon
TTITLE6=Blowing in the wind
TTITLE7=Ruby red slippers
TTITLE8=Tennessee fix
TTITLE9=I know me by now
TTITLE10=Dear heartache
TTITLE11=It's a when situation
TTITLE12=Go within
EXTD=
EXTT0=
EXTT1=
EXTT2=
EXTT3=
EXTT4=
EXTT5=
EXTT6=
EXTT7=
EXTT8=
EXTT9=
EXTT10=
EXTT11=
EXTT12=
PLAYORDER=
